<?xml version="1.0" encoding="utf-8"?>
<svg version="1.1" xmlns:xlink="http://www.w3.org/1999/xlink" width="18px" height="21px" xmlns="http://www.w3.org/2000/svg">
  <g transform="matrix(1 0 0 1 -1157 -760 )">
    <path d="M 10.924083116883114 10.521795100222716  L 17.60727272727273 18.544543429844097  C 18.136051948051946 19.17968819599109  18.05068051948052 20.12305122494432  17.41586493506494 20.652026726057905  C 17.13609350649351 20.88513140311804  16.796384415584416 20.99915812917595  16.458825974025977 20.99915812917595  C 16.030005194805195 20.99915812917595  15.60464415584416 20.815723830734967  15.309163636363639 20.46036080178174  L 8.976623376623376 12.819821826280625  L 2.6462337662337663 20.420044543429846  C 2.35037922077922 20.77522048997773  1.9252987012987008 20.958841870824052  1.496571428571428 20.958841870824052  C 1.1590597402597398 20.958841870824052  0.8195844155844152 20.844815144766148  0.5395324675324672 20.611710467706015  C -0.09537662337662374 20.082734966592426  -0.1809350649350653 19.139371937639197  0.34812467532467495 18.504227171492204  L 7.029163636363636 10.483069042316258  L 0.3470025974025974 2.502227171492205  C -0.18191688311688312 1.8670824053452117  -0.09645194805194807 0.9237193763919822  0.5385974025974025 0.39474387527839633  C 1.1725714285714286 -0.1356347438752785  2.1155844155844155 -0.05032516703786194  2.6452987012987013 0.5862227171492205  L 8.976623376623376 8.184855233853007  L 15.307012987012987 0.5846325167037862  C 15.835324675324674 -0.05051224944320704  16.778805194805194 -0.13657015590200453  17.413714285714285 0.3931536748329621  C 18.048623376623375 0.922129175946548  18.134181818181816 1.8654922048997773  17.605122077922076 2.500636971046771  L 10.924083116883114 10.521795100222716  Z " fill-rule="nonzero" fill="#333333" stroke="none" transform="matrix(1 0 0 1 1157 760 )" />
  </g>
</svg>