<?xml version="1.0" encoding="utf-8"?>
<svg version="1.1" xmlns:xlink="http://www.w3.org/1999/xlink" width="27px" height="31px" xmlns="http://www.w3.org/2000/svg">
  <g transform="matrix(1 0 0 1 -175 -1484 )">
    <path d="M 20.3203125 1.1763392857142867  L 25.8046875 6.5736607142857135  C 26.132812500000004 6.896577380952379  26.4140625 7.33482142857143  26.6484375 7.888392857142857  C 26.8828125 8.441964285714286  27 8.949404761904761  27 9.410714285714286  L 27 29.33928571428571  C 27 29.800595238095237  26.8359375 30.192708333333332  26.5078125 30.515625  C 26.179687500000004 30.838541666666668  25.78125 31  25.3125 31  L 1.6875 31  C 1.2187500000000002 31  0.8203125000000001 30.838541666666668  0.49218750000000006 30.515625  C 0.16406249999999997 30.192708333333332  0 29.800595238095237  0 29.33928571428571  L 0 1.6607142857142867  C 0 1.199404761904761  0.16406249999999997 0.8072916666666655  0.49218750000000006 0.484375  C 0.8203125000000001 0.16145833333333448  1.2187500000000002 0  1.6875 0  L 17.4375 0  C 17.906250000000004 0  18.421875 0.11532738095238226  18.984375 0.34598214285714335  C 19.546875 0.5766369047619044  19.9921875 0.8534226190476177  20.3203125 1.1763392857142867  Z M 18.720703125 2.73325892857143  C 18.580078125 2.59486607142857  18.339843750000004 2.468005952380949  18 2.35267857142857  L 18 8.857142857142856  L 24.609375 8.857142857142856  C 24.492187500000004 8.522693452380949  24.36328125 8.28627232142857  24.22265625 8.147879464285714  L 18.720703125 2.73325892857143  Z M 2.25 28.78571428571429  L 24.75 28.78571428571429  L 24.75 11.07142857142857  L 17.4375 11.07142857142857  C 16.96875 11.07142857142857  16.5703125 10.909970238095235  16.2421875 10.58705357142857  C 15.9140625 10.264136904761905  15.750000000000002 9.872023809523805  15.750000000000002 9.410714285714286  L 15.750000000000002 2.2142857142857135  L 2.25 2.2142857142857135  L 2.25 28.78571428571429  Z " fill-rule="nonzero" fill="#000000" stroke="none" transform="matrix(1 0 0 1 175 1484 )" />
  </g>
</svg>