<?xml version="1.0" encoding="utf-8"?>
<svg version="1.1" xmlns:xlink="http://www.w3.org/1999/xlink" width="13px" height="50px" xmlns="http://www.w3.org/2000/svg">
  <g transform="matrix(1 0 0 1 -587 -426 )">
    <path d="M 0 43.51851851851852  C 0 39.94212962962963  2.909910714285714 37.03703703703704  6.5 37.03703703703704  C 10.090089285714287 37.03703703703704  13 39.94212962962963  13 43.51851851851852  C 13 47.094907407407405  10.090089285714287 50  6.5 50  C 2.909910714285714 50  0 47.094907407407405  0 43.51851851851852  Z M 0 25  C 0 21.42361111111111  2.909910714285714 18.51851851851852  6.5 18.51851851851852  C 10.090089285714287 18.51851851851852  13 21.42361111111111  13 25  C 13 28.576388888888886  10.090089285714287 31.48148148148148  6.5 31.48148148148148  C 2.909910714285714 31.48148148148148  0 28.576388888888886  0 25  Z M 13 6.481481481481481  C 13 10.057870370370372  10.090089285714287 12.962962962962962  6.5 12.962962962962962  C 2.909910714285714 12.962962962962962  0 10.057870370370372  0 6.481481481481481  C 0 2.90162037037037  2.909910714285714 0  6.5 0  C 10.090089285714287 0  13 2.90162037037037  13 6.481481481481481  Z " fill-rule="nonzero" fill="#333333" stroke="none" transform="matrix(1 0 0 1 587 426 )" />
  </g>
</svg>