<?xml version="1.0" encoding="utf-8"?>
<svg version="1.1" xmlns:xlink="http://www.w3.org/1999/xlink" width="31px" height="31px" xmlns="http://www.w3.org/2000/svg">
  <g transform="matrix(1 0 0 1 -58 -88 )">
    <path d="M 25.165482954545453 14.2890625  C 25.297585227272727 14.421164772727273  25.363636363636367 14.58996212121212  25.363636363636367 14.795454545454547  L 25.363636363636367 16.204545454545453  C 25.363636363636367 16.410037878787875  25.297585227272727 16.578835227272727  25.165482954545453 16.7109375  C 25.03338068181818 16.843039772727273  24.86458333333334 16.909090909090907  24.659090909090907 17  L 6.340909090909092 17  C 6.135416666666667 16.909090909090907  5.966619318181818 16.843039772727273  5.834517045454545 16.7109375  C 5.702414772727273 16.578835227272727  5.636363636363637 16.410037878787875  5.636363636363637 16.204545454545453  L 5.636363636363637 14.795454545454547  C 5.636363636363637 14.58996212121212  5.702414772727273 14.421164772727273  5.834517045454545 14.2890625  C 5.966619318181818 14.156960227272727  6.135416666666667 14.090909090909092  6.340909090909092 14  L 24.659090909090907 14  C 24.86458333333334 14.090909090909092  25.03338068181818 14.156960227272727  25.165482954545453 14.2890625  Z M 27.147017045454547 27.147017045454547  C 27.836884469696972 26.457149621212118  28.18181818181818 25.627840909090907  28 24.659090909090907  L 28 6.340909090909092  C 28.18181818181818 5.372159090909092  27.836884469696972 4.542850378787877  27.147017045454547 3.852982954545454  C 26.457149621212125 3.163115530303027  25.627840909090907 2.8181818181818192  24.659090909090907 3  L 6.340909090909092 3  C 5.372159090909092 2.8181818181818192  4.54285037878788 3.163115530303027  3.852982954545454 3.852982954545454  C 3.1631155303030307 4.542850378787877  2.8181818181818183 5.372159090909092  3 6.340909090909092  L 3 24.659090909090907  C 2.8181818181818183 25.627840909090907  3.1631155303030307 26.457149621212118  3.852982954545454 27.147017045454547  C 4.54285037878788 27.83688446969697  5.372159090909092 28.18181818181818  6.340909090909092 28  L 24.659090909090907 28  C 25.627840909090907 28.18181818181818  26.457149621212125 27.83688446969697  27.147017045454547 27.147017045454547  Z M 29.139559659090907 1.8604403409090922  C 30.379853219696972 3.10073390151515  31 4.594223484848481  31 6.340909090909092  L 31 24.659090909090907  C 31 26.405776515151516  30.379853219696972 27.89926609848485  29.139559659090907 29.139559659090907  C 27.89926609848485 30.37985321969697  26.40577651515152 31  24.659090909090907 31  L 6.340909090909092 31  C 4.594223484848485 31  3.100733901515152 30.37985321969697  1.8604403409090908 29.139559659090907  C 0.6201467803030303 27.89926609848485  0 26.405776515151516  0 24.659090909090907  L 0 6.340909090909092  C 0 4.594223484848481  0.6201467803030303 3.10073390151515  1.8604403409090908 1.8604403409090922  C 3.100733901515152 0.6201467803030273  4.594223484848485 0  6.340909090909092 0  L 24.659090909090907 0  C 26.40577651515152 0  27.89926609848485 0.6201467803030273  29.139559659090907 1.8604403409090922  Z " fill-rule="nonzero" fill="#000000" stroke="none" transform="matrix(1 0 0 1 58 88 )" />
  </g>
</svg>