<?xml version="1.0" encoding="utf-8"?>
<svg version="1.1" xmlns:xlink="http://www.w3.org/1999/xlink" width="28px" height="28px" xmlns="http://www.w3.org/2000/svg">
  <g transform="matrix(1 0 0 1 -338 -186 )">
    <path d="M 352 187  C 359.28 187  365 192.72  365 200  C 365 207.28  359.28 213  352 213  C 344.72 213  339 207.28  339 200  C 339 192.72  344.72 187  352 187  Z " fill-rule="nonzero" fill="#ffffff" stroke="none" />
    <path d="M 352 187  C 359.28 187  365 192.72  365 200  C 365 207.28  359.28 213  352 213  C 344.72 213  339 207.28  339 200  C 339 192.72  344.72 187  352 187  Z " stroke-width="2" stroke="#d9001b" fill="none" />
  </g>
</svg>